{
  "accessors": [
    {
      "bufferView": 2,
      "componentType": 5126,
      "count": 14643,
      "max": [
        6.259880065917969,
        13.920534133911133,
        7.500729084014893
      ],
      "min": [
        -6.259882926940918,
        -48.27195739746094,
        -7.5007147789001465
      ],
      "type": "VEC3"
    },
    {
      "bufferView": 2,
      "byteOffset": 175716,
      "componentType": 5126,
      "count": 14643,
      "max": [
        1.0,
        1.0,
        1.0
      ],
      "min": [
        -1.0,
        -1.0,
        -1.0
      ],
      "type": "VEC3"
    },
    {
      "bufferView": 3,
      "componentType": 5126,
      "count": 14643,
      "max": [
        1.0,
        1.0,
        1.0,
        1.0
      ],
      "min": [
        -1.0,
        -1.0,
        -1.0,
        -1.0
      ],
      "type": "VEC4"
    },
    {
      "bufferView": 1,
      "componentType": 5126,
      "count": 14643,
      "max": [
        1.078209400177002,
        0.9936099052429199
      ],
      "min": [
        -0.08156490325927734,
        0.006390094757080078
      ],
      "type": "VEC2"
    },
    {
      "bufferView": 0,
      "componentType": 5125,
      "count": 67791,
      "type": "SCALAR"
    },
    {
      "bufferView": 2,
      "byteOffset": 351432,
      "componentType": 5126,
      "count": 6376,
      "max": [
        0.9762219786643982,
        10.153987884521484,
        3.9646518230438232
      ],
      "min": [
        -0.9762280583381653,
        1.6230565309524536,
        -3.964622735977173
      ],
      "type": "VEC3"
    },
    {
      "bufferView": 2,
      "byteOffset": 427944,
      "componentType": 5126,
      "count": 6376,
      "max": [
        1.0,
        1.0,
        1.0
      ],
      "min": [
        -1.0,
        -1.0,
        -1.0
      ],
      "type": "VEC3"
    },
    {
      "bufferView": 3,
      "byteOffset": 234288,
      "componentType": 5126,
      "count": 6376,
      "max": [
        1.0,
        1.0,
        1.0,
        1.0
      ],
      "min": [
        -1.0,
        -0.8746824860572815,
        -1.0,
        1.0
      ],
      "type": "VEC4"
    },
    {
      "bufferView": 1,
      "byteOffset": 117144,
      "componentType": 5126,
      "count": 6376,
      "max": [
        0.9732146263122559,
        0.9874280691146851
      ],
      "min": [
        0.012571871280670166,
        0.01257181167602539
      ],
      "type": "VEC2"
    },
    {
      "bufferView": 0,
      "byteOffset": 271164,
      "componentType": 5125,
      "count": 31104,
      "type": "SCALAR"
    }
  ],
  "asset": {
    "extras": {
      "author": "Veninhu (https://sketchfab.com/Veninhu)",
      "license": "CC-BY-4.0 (http://creativecommons.org/licenses/by/4.0/)",
      "source": "https://sketchfab.com/3d-models/sword-8c4a35e26d0644c2bc11f835758c5456",
      "title": "Sword"
    },
    "generator": "Sketchfab-12.98.0",
    "version": "2.0"
  },
  "bufferViews": [
    {
      "buffer": 0,
      "byteLength": 395580,
      "name": "floatBufferViews",
      "target": 34963
    },
    {
      "buffer": 0,
      "byteLength": 168152,
      "byteOffset": 395580,
      "byteStride": 8,
      "name": "floatBufferViews",
      "target": 34962
    },
    {
      "buffer": 0,
      "byteLength": 504456,
      "byteOffset": 563732,
      "byteStride": 12,
      "name": "floatBufferViews",
      "target": 34962
    },
    {
      "buffer": 0,
      "byteLength": 336304,
      "byteOffset": 1068188,
      "byteStride": 16,
      "name": "floatBufferViews",
      "target": 34962
    }
  ],
  "buffers": [
    {
      "byteLength": 1404492,
      "uri": "scene.bin"
    }
  ],
  "images": [
    {
      "uri": "textures/Metal_baseColor.png"
    },
    {
      "uri": "textures/Metal_metallicRoughness.png"
    },
    {
      "uri": "textures/Metal_normal.png"
    },
    {
      "uri": "textures/Leather_baseColor.jpeg"
    },
    {
      "uri": "textures/Leather_metallicRoughness.png"
    },
    {
      "uri": "textures/Leather_normal.jpeg"
    }
  ],
  "materials": [
    {
      "doubleSided": true,
      "name": "Metal",
      "normalTexture": {
        "index": 2
      },
      "pbrMetallicRoughness": {
        "baseColorTexture": {
          "index": 0
        },
        "metallicRoughnessTexture": {
          "index": 1
        }
      }
    },
    {
      "doubleSided": true,
      "name": "Leather",
      "normalTexture": {
        "index": 5
      },
      "pbrMetallicRoughness": {
        "baseColorTexture": {
          "index": 3
        },
        "metallicFactor": 0.0,
        "metallicRoughnessTexture": {
          "index": 4
        }
      }
    }
  ],
  "meshes": [
    {
      "name": "Object_0",
      "primitives": [
        {
          "attributes": {
            "NORMAL": 1,
            "POSITION": 0,
            "TANGENT": 2,
            "TEXCOORD_0": 3
          },
          "indices": 4,
          "material": 0,
          "mode": 4
        }
      ]
    },
    {
      "name": "Object_1",
      "primitives": [
        {
          "attributes": {
            "NORMAL": 6,
            "POSITION": 5,
            "TANGENT": 7,
            "TEXCOORD_0": 8
          },
          "indices": 9,
          "material": 1,
          "mode": 4
        }
      ]
    }
  ],
  "nodes": [
    {
      "children": [
        1
      ],
      "matrix": [
        1.0,
        0.0,
        0.0,
        0.0,
        0.0,
        2.220446049250313e-16,
        -1.0,
        0.0,
        0.0,
        1.0,
        2.220446049250313e-16,
        0.0,
        0.0,
        0.0,
        0.0,
        1.0
      ],
      "name": "Sketchfab_model"
    },
    {
      "children": [
        2
      ],
      "name": "root"
    },
    {
      "children": [
        3
      ],
      "matrix": [
        1.0,
        0.0,
        0.0,
        0.0,
        0.0,
        2.220446049250313e-16,
        1.0,
        0.0,
        0.0,
        -1.0,
        2.220446049250313e-16,
        0.0,
        0.0,
        0.0,
        0.0,
        1.0
      ],
      "name": "GLTF_SceneRootNode"
    },
    {
      "children": [
        4,
        5
      ],
      "matrix": [
        0.04733879846287599,
        -0.26509258584663725,
        -0.2435286404598798,
        0.0,
        -0.15075517142844555,
        0.20844773638565448,
        -0.25621018543039936,
        0.0,
        0.04100670146874713,
        0.016875664160000883,
        -0.010398799372490705,
        0.0,
        3.07875919342041,
        7.081149101257324,
        1.5054967403411865,
        1.0
      ],
      "name": "Sword_0"
    },
    {
      "mesh": 0,
      "name": "Object_4"
    },
    {
      "mesh": 1,
      "name": "Object_5"
    }
  ],
  "samplers": [
    {
      "magFilter": 9729,
      "minFilter": 9987,
      "wrapS": 10497,
      "wrapT": 10497
    }
  ],
  "scene": 0,
  "scenes": [
    {
      "name": "Sketchfab_Scene",
      "nodes": [
        0
      ]
    }
  ],
  "textures": [
    {
      "sampler": 0,
      "source": 0
    },
    {
      "sampler": 0,
      "source": 1
    },
    {
      "sampler": 0,
      "source": 2
    },
    {
      "sampler": 0,
      "source": 3
    },
    {
      "sampler": 0,
      "source": 4
    },
    {
      "sampler": 0,
      "source": 5
    }
  ]
}
